<mxfile host="app.diagrams.net" agent="Mozilla/5.0 (Windows NT 10.0; Win64; x64) AppleWebKit/537.36 (KHTML, like Gecko) Chrome/131.0.0.0 Safari/537.36" version="24.8.6">
  <diagram name="Page-1" id="VZF6ikyh2R9G2Um14KB4">
    <mxGraphModel dx="429" dy="213" grid="1" gridSize="10" guides="1" tooltips="1" connect="1" arrows="1" fold="1" page="1" pageScale="1" pageWidth="850" pageHeight="1100" math="0" shadow="0">
      <root>
        <mxCell id="0" />
        <mxCell id="1" parent="0" />
        <mxCell id="9T6kzUSVTmsXxLjnJHrW-1" value="" style="endArrow=classic;dashed=1;html=1;dashPattern=1 3;strokeWidth=2;rounded=0;exitX=1;exitY=0.5;exitDx=0;exitDy=0;endFill=1;endSize=2;" parent="1" source="HdwHcUbBK1Hrgu17Ygms-6" edge="1">
          <mxGeometry width="50" height="50" relative="1" as="geometry">
            <mxPoint x="340" y="330" as="sourcePoint" />
            <mxPoint x="230" y="150" as="targetPoint" />
          </mxGeometry>
        </mxCell>
        <mxCell id="HdwHcUbBK1Hrgu17Ygms-6" value="" style="triangle;whiteSpace=wrap;html=1;rotation=-90;" parent="1" vertex="1">
          <mxGeometry x="220" y="380" width="20" height="20" as="geometry" />
        </mxCell>
        <mxCell id="HdwHcUbBK1Hrgu17Ygms-7" value="" style="triangle;whiteSpace=wrap;html=1;rotation=-90;" parent="1" vertex="1">
          <mxGeometry x="500" y="320" width="20" height="20" as="geometry" />
        </mxCell>
        <mxCell id="HdwHcUbBK1Hrgu17Ygms-8" value="" style="endArrow=none;html=1;rounded=0;exitX=1;exitY=0.5;exitDx=0;exitDy=0;entryX=1;entryY=0.5;entryDx=0;entryDy=0;strokeWidth=2;" parent="1" source="HdwHcUbBK1Hrgu17Ygms-6" target="HdwHcUbBK1Hrgu17Ygms-7" edge="1">
          <mxGeometry width="50" height="50" relative="1" as="geometry">
            <mxPoint x="280" y="410" as="sourcePoint" />
            <mxPoint x="330" y="360" as="targetPoint" />
          </mxGeometry>
        </mxCell>
        <mxCell id="HdwHcUbBK1Hrgu17Ygms-9" value="" style="endArrow=none;html=1;rounded=0;exitX=1;exitY=0.5;exitDx=0;exitDy=0;strokeWidth=2;" parent="1" source="HdwHcUbBK1Hrgu17Ygms-6" edge="1">
          <mxGeometry width="50" height="50" relative="1" as="geometry">
            <mxPoint x="280" y="410" as="sourcePoint" />
            <mxPoint x="290" y="250" as="targetPoint" />
          </mxGeometry>
        </mxCell>
        <mxCell id="HdwHcUbBK1Hrgu17Ygms-12" value="" style="endArrow=none;html=1;rounded=0;entryX=1;entryY=0.5;entryDx=0;entryDy=0;strokeWidth=2;" parent="1" target="HdwHcUbBK1Hrgu17Ygms-7" edge="1">
          <mxGeometry width="50" height="50" relative="1" as="geometry">
            <mxPoint x="410" y="210" as="sourcePoint" />
            <mxPoint x="330" y="360" as="targetPoint" />
          </mxGeometry>
        </mxCell>
        <mxCell id="HdwHcUbBK1Hrgu17Ygms-13" value="" style="endArrow=none;html=1;rounded=0;strokeWidth=2;" parent="1" edge="1">
          <mxGeometry width="50" height="50" relative="1" as="geometry">
            <mxPoint x="290" y="250" as="sourcePoint" />
            <mxPoint x="410" y="210" as="targetPoint" />
          </mxGeometry>
        </mxCell>
        <mxCell id="HdwHcUbBK1Hrgu17Ygms-14" value="A" style="text;html=1;align=center;verticalAlign=middle;whiteSpace=wrap;rounded=0;fontSize=20;" parent="1" vertex="1">
          <mxGeometry x="210" y="350" width="20" height="30" as="geometry" />
        </mxCell>
        <mxCell id="HdwHcUbBK1Hrgu17Ygms-15" value="B" style="text;html=1;align=center;verticalAlign=middle;whiteSpace=wrap;rounded=0;fontSize=20;" parent="1" vertex="1">
          <mxGeometry x="510" y="290" width="20" height="30" as="geometry" />
        </mxCell>
        <mxCell id="HdwHcUbBK1Hrgu17Ygms-16" value="C" style="text;html=1;align=center;verticalAlign=middle;whiteSpace=wrap;rounded=0;fontSize=20;" parent="1" vertex="1">
          <mxGeometry x="415" y="190" width="20" height="30" as="geometry" />
        </mxCell>
        <mxCell id="HdwHcUbBK1Hrgu17Ygms-18" value="D" style="text;html=1;align=center;verticalAlign=middle;whiteSpace=wrap;rounded=0;fontSize=20;" parent="1" vertex="1">
          <mxGeometry x="260" y="240" width="20" height="30" as="geometry" />
        </mxCell>
        <mxCell id="HdwHcUbBK1Hrgu17Ygms-25" value="" style="endArrow=classic;dashed=1;html=1;dashPattern=1 3;strokeWidth=2;rounded=0;exitX=1;exitY=1;exitDx=0;exitDy=0;endFill=1;endSize=2;" parent="1" source="HdwHcUbBK1Hrgu17Ygms-14" edge="1">
          <mxGeometry width="50" height="50" relative="1" as="geometry">
            <mxPoint x="280" y="410" as="sourcePoint" />
            <mxPoint x="520" y="380" as="targetPoint" />
          </mxGeometry>
        </mxCell>
        <mxCell id="HdwHcUbBK1Hrgu17Ygms-33" value="" style="verticalLabelPosition=bottom;verticalAlign=top;html=1;shape=mxgraph.basic.arc;startAngle=0.29159132157440815;endAngle=0.4886510645000698;rotation=-75;" parent="1" vertex="1">
          <mxGeometry x="198.59" y="341.91" width="61.81" height="64.49" as="geometry" />
        </mxCell>
        <mxCell id="HdwHcUbBK1Hrgu17Ygms-34" value="" style="verticalLabelPosition=bottom;verticalAlign=top;html=1;shape=mxgraph.basic.arc;startAngle=0.4173753297307161;endAngle=0.4518918376902369;rotation=-75;" parent="1" vertex="1">
          <mxGeometry x="157.83" y="310" width="144.34" height="146.95" as="geometry" />
        </mxCell>
        <mxCell id="HdwHcUbBK1Hrgu17Ygms-39" value="&lt;span style=&quot;font-family: Arial, sans-serif; text-align: left; text-wrap-mode: wrap; background-color: rgb(255, 255, 255);&quot;&gt;&lt;font style=&quot;font-size: 18px;&quot;&gt;α&lt;/font&gt;&lt;/span&gt;" style="text;html=1;align=center;verticalAlign=middle;resizable=0;points=[];autosize=1;strokeColor=none;fillColor=none;" parent="1" vertex="1">
          <mxGeometry x="250" y="333" width="30" height="40" as="geometry" />
        </mxCell>
        <mxCell id="HdwHcUbBK1Hrgu17Ygms-40" value="&lt;span style=&quot;font-family: Arial, sans-serif; font-size: 18px; text-align: left; text-wrap-mode: wrap; background-color: rgb(255, 255, 255);&quot;&gt;θ&lt;/span&gt;" style="text;html=1;align=center;verticalAlign=middle;resizable=0;points=[];autosize=1;strokeColor=none;fillColor=none;fontSize=18;fontColor=#000000;" parent="1" vertex="1">
          <mxGeometry x="322" y="350" width="30" height="40" as="geometry" />
        </mxCell>
        <mxCell id="AUBmNn1cWlHKE3LHTFNs-2" value="a" style="text;html=1;align=center;verticalAlign=middle;whiteSpace=wrap;rounded=0;fontSize=17;" parent="1" vertex="1">
          <mxGeometry x="240" y="290" width="20" height="30" as="geometry" />
        </mxCell>
        <mxCell id="AUBmNn1cWlHKE3LHTFNs-3" value="b" style="text;html=1;align=center;verticalAlign=middle;whiteSpace=wrap;rounded=0;fontSize=17;" parent="1" vertex="1">
          <mxGeometry x="460" y="240" width="20" height="30" as="geometry" />
        </mxCell>
        <mxCell id="AUBmNn1cWlHKE3LHTFNs-4" value="h" style="text;html=1;align=center;verticalAlign=middle;whiteSpace=wrap;rounded=0;fontSize=17;" parent="1" vertex="1">
          <mxGeometry x="350" y="200" width="20" height="30" as="geometry" />
        </mxCell>
        <mxCell id="AUBmNn1cWlHKE3LHTFNs-5" value="g" style="text;html=1;align=center;verticalAlign=middle;whiteSpace=wrap;rounded=0;fontSize=17;" parent="1" vertex="1">
          <mxGeometry x="370" y="343" width="20" height="30" as="geometry" />
        </mxCell>
        <mxCell id="vKMi6PuMedDzNq_lHlW0-1" value="" style="endArrow=none;html=1;rounded=0;strokeWidth=2;" parent="1" edge="1">
          <mxGeometry width="50" height="50" relative="1" as="geometry">
            <mxPoint x="290" y="250" as="sourcePoint" />
            <mxPoint x="360" y="180" as="targetPoint" />
          </mxGeometry>
        </mxCell>
        <mxCell id="vKMi6PuMedDzNq_lHlW0-2" value="" style="endArrow=none;html=1;rounded=0;strokeWidth=2;" parent="1" edge="1">
          <mxGeometry width="50" height="50" relative="1" as="geometry">
            <mxPoint x="410" y="210" as="sourcePoint" />
            <mxPoint x="360" y="180" as="targetPoint" />
          </mxGeometry>
        </mxCell>
        <mxCell id="vKMi6PuMedDzNq_lHlW0-3" value="P" style="text;html=1;align=center;verticalAlign=middle;whiteSpace=wrap;rounded=0;fontSize=20;" parent="1" vertex="1">
          <mxGeometry x="370" y="160" width="20" height="30" as="geometry" />
        </mxCell>
        <mxCell id="vKMi6PuMedDzNq_lHlW0-4" value="" style="endArrow=none;dashed=1;html=1;dashPattern=1 3;strokeWidth=2;rounded=0;exitX=0.25;exitY=1;exitDx=0;exitDy=0;" parent="1" edge="1">
          <mxGeometry width="50" height="50" relative="1" as="geometry">
            <mxPoint x="345" y="231" as="sourcePoint" />
            <mxPoint x="330" y="181" as="targetPoint" />
          </mxGeometry>
        </mxCell>
        <mxCell id="vKMi6PuMedDzNq_lHlW0-6" value="P_pos" style="text;html=1;align=center;verticalAlign=middle;whiteSpace=wrap;rounded=0;fontSize=13;" parent="1" vertex="1">
          <mxGeometry x="302.17" y="160" width="60" height="30" as="geometry" />
        </mxCell>
        <mxCell id="vKMi6PuMedDzNq_lHlW0-8" value="" style="endArrow=classic;startArrow=none;html=1;rounded=0;endFill=1;startFill=0;endSize=3;startSize=2;entryX=0.96;entryY=0.684;entryDx=0;entryDy=0;entryPerimeter=0;exitX=0.5;exitY=1;exitDx=0;exitDy=0;" parent="1" edge="1">
          <mxGeometry width="50" height="50" relative="1" as="geometry">
            <mxPoint x="331.4" y="187.48" as="sourcePoint" />
            <mxPoint x="358.99999999999994" y="178" as="targetPoint" />
          </mxGeometry>
        </mxCell>
        <mxCell id="vKMi6PuMedDzNq_lHlW0-12" value="" style="endArrow=none;dashed=1;html=1;dashPattern=1 3;strokeWidth=2;rounded=0;entryX=0.5;entryY=1;entryDx=0;entryDy=0;" parent="1" target="vKMi6PuMedDzNq_lHlW0-6" edge="1">
          <mxGeometry width="50" height="50" relative="1" as="geometry">
            <mxPoint x="270" y="209" as="sourcePoint" />
            <mxPoint x="362" y="179" as="targetPoint" />
          </mxGeometry>
        </mxCell>
        <mxCell id="vKMi6PuMedDzNq_lHlW0-13" value="" style="endArrow=none;startArrow=classic;html=1;rounded=0;startSize=3;endSize=3;startFill=1;endFill=0;" parent="1" edge="1">
          <mxGeometry width="50" height="50" relative="1" as="geometry">
            <mxPoint x="280" y="210" as="sourcePoint" />
            <mxPoint x="290" y="250" as="targetPoint" />
          </mxGeometry>
        </mxCell>
        <mxCell id="vKMi6PuMedDzNq_lHlW0-14" value="P_offset" style="text;html=1;align=center;verticalAlign=middle;whiteSpace=wrap;rounded=0;fontSize=13;" parent="1" vertex="1">
          <mxGeometry x="226" y="220" width="60" height="30" as="geometry" />
        </mxCell>
        <mxCell id="9T6kzUSVTmsXxLjnJHrW-3" value="y" style="text;html=1;align=center;verticalAlign=middle;whiteSpace=wrap;rounded=0;fontSize=17;" parent="1" vertex="1">
          <mxGeometry x="206" y="150" width="20" height="30" as="geometry" />
        </mxCell>
        <mxCell id="9T6kzUSVTmsXxLjnJHrW-4" value="x" style="text;html=1;align=center;verticalAlign=middle;whiteSpace=wrap;rounded=0;fontSize=17;" parent="1" vertex="1">
          <mxGeometry x="496" y="376" width="20" height="30" as="geometry" />
        </mxCell>
        <mxCell id="f3ZgJds7Y6fv_Pg92_u6-2" value="Q" style="text;html=1;align=center;verticalAlign=middle;whiteSpace=wrap;rounded=0;fontSize=18;" parent="1" vertex="1">
          <mxGeometry x="332" y="230" width="20" height="30" as="geometry" />
        </mxCell>
        <mxCell id="wd7JxJc8Qrn49E9_br1t-1" value="" style="endArrow=none;dashed=1;html=1;dashPattern=1 3;strokeWidth=2;rounded=0;" edge="1" parent="1">
          <mxGeometry width="50" height="50" relative="1" as="geometry">
            <mxPoint x="380" y="280" as="sourcePoint" />
            <mxPoint x="290" y="250" as="targetPoint" />
          </mxGeometry>
        </mxCell>
        <mxCell id="wd7JxJc8Qrn49E9_br1t-2" value="" style="endArrow=classic;startArrow=classic;html=1;rounded=0;endSize=3;startSize=3;" edge="1" parent="1">
          <mxGeometry width="50" height="50" relative="1" as="geometry">
            <mxPoint x="380" y="280" as="sourcePoint" />
            <mxPoint x="410" y="210" as="targetPoint" />
          </mxGeometry>
        </mxCell>
        <mxCell id="wd7JxJc8Qrn49E9_br1t-3" value="C&lt;span style=&quot;background-color: initial;&quot;&gt;_offset&lt;/span&gt;" style="text;html=1;align=center;verticalAlign=middle;whiteSpace=wrap;rounded=0;fontSize=13;" vertex="1" parent="1">
          <mxGeometry x="390" y="240" width="60" height="30" as="geometry" />
        </mxCell>
        <mxCell id="wd7JxJc8Qrn49E9_br1t-4" value="" style="endArrow=classic;html=1;rounded=0;exitX=0;exitY=1;exitDx=0;exitDy=0;endSize=3;" edge="1" parent="1" source="HdwHcUbBK1Hrgu17Ygms-15">
          <mxGeometry width="50" height="50" relative="1" as="geometry">
            <mxPoint x="320" y="310" as="sourcePoint" />
            <mxPoint x="380" y="280" as="targetPoint" />
          </mxGeometry>
        </mxCell>
        <mxCell id="wd7JxJc8Qrn49E9_br1t-5" value="C_pos" style="text;html=1;align=center;verticalAlign=middle;whiteSpace=wrap;rounded=0;fontSize=13;" vertex="1" parent="1">
          <mxGeometry x="404" y="270" width="60" height="30" as="geometry" />
        </mxCell>
      </root>
    </mxGraphModel>
  </diagram>
</mxfile>
